<svg width="1280" height="369" viewBox="0 0 1280 369" fill="none" xmlns="http://www.w3.org/2000/svg">
<path d="M337.661 364.135L336.27 363.821C351.785 294.825 390.775 232.17 446.058 187.398C487.854 153.601 537.563 130.998 590.506 121.716C643.449 112.434 697.883 116.78 748.683 134.342C799.483 151.905 844.978 182.108 880.883 222.107C916.788 262.106 941.923 310.585 953.92 362.98L952.53 363.296C919.688 219.093 793.306 118.38 645.191 118.38C499.017 118.38 369.682 221.735 337.661 364.135Z" fill="#3F3D56"/>
<path d="M876.341 195.554C897.734 195.554 915.076 178.213 915.076 156.82C915.076 135.428 897.734 118.086 876.341 118.086C854.949 118.086 837.607 135.428 837.607 156.82C837.607 178.213 854.949 195.554 876.341 195.554Z" fill="#FF6584"/>
<path d="M861.627 311.68H860.201V368.018H861.627V311.68Z" fill="#3F3D56"/>
<path d="M874.79 318.86C874.881 338.56 861.021 354.594 861.021 354.594C861.021 354.594 847.014 338.688 846.923 318.989C846.832 299.289 860.692 283.254 860.692 283.254C860.692 283.254 874.699 299.16 874.79 318.86Z" fill="#A12AD8"/>
<path opacity="0.1" d="M874.79 318.86C874.881 338.56 861.021 354.594 861.021 354.594C861.021 354.594 847.014 338.688 846.923 318.989C846.832 299.289 860.692 283.254 860.692 283.254C860.692 283.254 874.699 299.16 874.79 318.86Z" fill="black"/>
<path opacity="0.4" d="M592.077 199.671C604.385 199.671 614.361 189.694 614.361 177.387C614.361 165.08 604.385 155.103 592.077 155.103C579.77 155.103 569.794 165.08 569.794 177.387C569.794 189.694 579.77 199.671 592.077 199.671Z" fill="#A12AD8"/>
<path opacity="0.4" d="M550.835 203.662C559.469 203.662 566.468 196.663 566.468 188.03C566.468 179.396 559.469 172.398 550.835 172.398C542.202 172.398 535.203 179.396 535.203 188.03C535.203 196.663 542.202 203.662 550.835 203.662Z" fill="#A12AD8"/>
<path opacity="0.4" d="M383.249 248.589C391.882 248.589 398.881 241.591 398.881 232.957C398.881 224.324 391.882 217.325 383.249 217.325C374.615 217.325 367.617 224.324 367.617 232.957C367.617 241.591 374.615 248.589 383.249 248.589Z" fill="#A12AD8"/>
<path opacity="0.4" d="M845.448 197.837C857.755 197.837 867.732 187.861 867.732 175.553C867.732 163.246 857.755 153.269 845.448 153.269C833.141 153.269 823.164 163.246 823.164 175.553C823.164 187.861 833.141 197.837 845.448 197.837Z" fill="#A12AD8"/>
<path d="M275.167 361.754C276.375 366.219 280.512 368.985 280.512 368.985C280.512 368.985 282.692 364.511 281.484 360.045C280.276 355.579 276.138 352.814 276.138 352.814C276.138 352.814 273.959 357.288 275.167 361.754Z" fill="#3F3D56"/>
<path d="M276.942 360.794C280.257 364.021 280.661 368.981 280.661 368.981C280.661 368.981 275.692 368.71 272.377 365.483C269.062 362.256 268.657 357.296 268.657 357.296C268.657 357.296 273.627 357.567 276.942 360.794Z" fill="#A12AD8"/>
<path d="M711.605 361.754C712.813 366.219 716.951 368.985 716.951 368.985C716.951 368.985 719.13 364.511 717.922 360.045C716.714 355.579 712.576 352.814 712.576 352.814C712.576 352.814 710.397 357.288 711.605 361.754Z" fill="#3F3D56"/>
<path d="M713.38 360.794C716.695 364.021 717.1 368.981 717.1 368.981C717.1 368.981 712.131 368.71 708.816 365.483C705.501 362.256 705.096 357.296 705.096 357.296C705.096 357.296 710.065 357.567 713.38 360.794Z" fill="#A12AD8"/>
<path d="M283.372 328.187L280.422 323.27L307.959 299.666H378.769V306.55L353.199 334.088L323.694 339.989L283.372 328.187Z" fill="#3F3D56"/>
<path d="M390.958 313.518V298.13H381.687V302.983L378.769 299.667L355.166 323.27L351.231 327.204L346.314 346.873L355.166 368.509H400.405V324.253L390.958 313.518Z" fill="#CCCCCC"/>
<path d="M355.166 323.27H280.422V368.509H355.166V323.27Z" fill="#F2F2F2"/>
<path d="M344.839 337.53H329.104V351.298H344.839V337.53Z" fill="#3F3D56"/>
<path d="M322.711 337.038H308.943V368.509H322.711V337.038Z" fill="#CCCCCC"/>
<path d="M293.207 341.955V337.038H287.307V341.955H292.715H293.207Z" fill="#3F3D56"/>
<path d="M292.715 345.889H287.307V350.807H293.207V345.889H292.715Z" fill="#3F3D56"/>
<path d="M303.042 337.038H297.141V341.955H303.042V337.038Z" fill="#3F3D56"/>
<path d="M303.042 345.889H297.141V350.807H303.042V345.889Z" fill="#3F3D56"/>
<path d="M376.31 342.447V337.53H370.409V342.447H375.818H376.31Z" fill="#3F3D56"/>
<path d="M375.818 346.381H370.409V351.298H376.31V346.381H375.818Z" fill="#3F3D56"/>
<path d="M386.145 337.53H380.244V342.447H386.145V337.53Z" fill="#3F3D56"/>
<path d="M386.145 346.381H380.244V351.298H386.145V346.381Z" fill="#3F3D56"/>
<path d="M567.913 328.187L564.963 323.27L592.5 299.666H663.31V306.55L637.74 334.088L608.235 339.989L567.913 328.187Z" fill="#3F3D56"/>
<path d="M675.499 313.518V298.13H666.228V302.983L663.31 299.667L639.707 323.27L635.772 327.204L630.855 346.873L639.707 368.509H684.946V324.253L675.499 313.518Z" fill="#CCCCCC"/>
<path d="M639.706 323.27H564.963V368.509H639.706V323.27Z" fill="#F2F2F2"/>
<path d="M629.38 337.53H613.644V351.298H629.38V337.53Z" fill="#3F3D56"/>
<path d="M607.252 337.038H593.483V368.509H607.252V337.038Z" fill="#CCCCCC"/>
<path d="M577.748 341.955V337.038H571.848V341.955H577.256H577.748Z" fill="#3F3D56"/>
<path d="M577.256 345.889H571.848V350.807H577.748V345.889H577.256Z" fill="#3F3D56"/>
<path d="M587.583 337.038H581.682V341.955H587.583V337.038Z" fill="#3F3D56"/>
<path d="M587.583 345.889H581.682V350.807H587.583V345.889Z" fill="#3F3D56"/>
<path d="M660.851 342.447V337.53H654.95V342.447H660.359H660.851Z" fill="#3F3D56"/>
<path d="M660.359 346.381H654.95V351.298H660.851V346.381H660.359Z" fill="#3F3D56"/>
<path d="M670.686 337.53H664.785V342.447H670.686V337.53Z" fill="#3F3D56"/>
<path d="M670.686 346.381H664.785V351.298H670.686V346.381Z" fill="#3F3D56"/>
<path d="M434.827 245.576L429.909 241.642L457.446 217.055H527.272V238.691L482.033 269.179L434.827 245.576Z" fill="#3F3D56"/>
<path d="M540.003 230.847V217.546H530.732V220.804L527.272 217.055L504.652 241.642L495.802 247.543L482.077 347.812L502.775 368.509H550.876V242.625L540.003 230.847Z" fill="#CCCCCC"/>
<path d="M504.653 241.642H429.909V368.509H504.653V241.642Z" fill="#F2F2F2"/>
<path d="M472.69 337.53H458.921V368.509H472.69V337.53Z" fill="#CCCCCC"/>
<path d="M444.169 346.381V341.464H438.269V346.381H443.678H444.169Z" fill="#3F3D56"/>
<path d="M443.678 350.315H438.269V355.233H444.169V350.315H443.678Z" fill="#3F3D56"/>
<path d="M454.004 341.464H448.103V346.381H454.004V341.464Z" fill="#3F3D56"/>
<path d="M454.004 350.315H448.103V355.232H454.004V350.315Z" fill="#3F3D56"/>
<path d="M484.491 346.381V341.464H478.591V346.381H484H484.491Z" fill="#3F3D56"/>
<path d="M484 350.315H478.591V355.233H484.491V350.315H484Z" fill="#3F3D56"/>
<path d="M494.326 341.464H488.425V346.381H494.326V341.464Z" fill="#3F3D56"/>
<path d="M494.326 350.315H488.425V355.232H494.326V350.315Z" fill="#3F3D56"/>
<path d="M525.797 248.034V243.117H519.896V248.034H525.305H525.797Z" fill="#3F3D56"/>
<path d="M525.305 251.968H519.896V256.885H525.797V251.968H525.305Z" fill="#3F3D56"/>
<path d="M535.632 243.117H529.731V248.034H535.632V243.117Z" fill="#3F3D56"/>
<path d="M535.632 251.968H529.731V256.886H535.632V251.968Z" fill="#3F3D56"/>
<path d="M525.797 275.572V270.654H519.896V275.572H525.305H525.797Z" fill="#3F3D56"/>
<path d="M525.305 279.505H519.896V284.422H525.797V279.505H525.305Z" fill="#3F3D56"/>
<path d="M535.632 270.654H529.731V275.571H535.632V270.654Z" fill="#3F3D56"/>
<path d="M535.632 279.505H529.731V284.423H535.632V279.505Z" fill="#3F3D56"/>
<path d="M525.797 303.109V298.191H519.896V303.109H525.305H525.797Z" fill="#3F3D56"/>
<path d="M525.305 307.042H519.896V311.959H525.797V307.042H525.305Z" fill="#3F3D56"/>
<path d="M535.632 298.191H529.731V303.109H535.632V298.191Z" fill="#3F3D56"/>
<path d="M535.632 307.042H529.731V311.96H535.632V307.042Z" fill="#3F3D56"/>
<path d="M525.797 330.646V325.728H519.896V330.646H525.305H525.797Z" fill="#3F3D56"/>
<path d="M525.305 334.579H519.896V339.497H525.797V334.579H525.305Z" fill="#3F3D56"/>
<path d="M535.632 325.728H529.731V330.646H535.632V325.728Z" fill="#3F3D56"/>
<path d="M535.632 334.579H529.731V339.497H535.632V334.579Z" fill="#3F3D56"/>
<path d="M495.31 248.034H438.269V259.836H495.31V248.034Z" fill="#3F3D56"/>
<path d="M495.31 271.638H438.269V283.439H495.31V271.638Z" fill="#3F3D56"/>
<path d="M495.31 295.241H438.269V307.042H495.31V295.241Z" fill="#3F3D56"/>
<path d="M495.31 318.844H438.269V330.646H495.31V318.844Z" fill="#3F3D56"/>
<path d="M722.22 245.576L717.303 241.642L744.84 217.055H814.666V238.691L769.427 269.179L722.22 245.576Z" fill="#3F3D56"/>
<path d="M827.397 230.847V217.546H818.126V220.804L814.666 217.055L792.046 241.642L783.195 247.543L769.471 347.812L790.168 368.509H838.269V242.625L827.397 230.847Z" fill="#CCCCCC"/>
<path d="M792.046 241.642H717.303V368.509H792.046V241.642Z" fill="#F2F2F2"/>
<path d="M760.083 337.53H746.315V368.509H760.083V337.53Z" fill="#CCCCCC"/>
<path d="M731.563 346.381V341.464H725.662V346.381H731.071H731.563Z" fill="#3F3D56"/>
<path d="M731.071 350.315H725.662V355.233H731.563V350.315H731.071Z" fill="#3F3D56"/>
<path d="M741.397 341.464H735.497V346.381H741.397V341.464Z" fill="#3F3D56"/>
<path d="M741.397 350.315H735.497V355.232H741.397V350.315Z" fill="#3F3D56"/>
<path d="M771.885 346.381V341.464H765.984V346.381H771.393H771.885Z" fill="#3F3D56"/>
<path d="M771.393 350.315H765.984V355.233H771.885V350.315H771.393Z" fill="#3F3D56"/>
<path d="M781.72 341.464H775.819V346.381H781.72V341.464Z" fill="#3F3D56"/>
<path d="M781.72 350.315H775.819V355.232H781.72V350.315Z" fill="#3F3D56"/>
<path d="M813.19 248.034V243.117H807.29V248.034H812.699H813.19Z" fill="#3F3D56"/>
<path d="M812.699 251.968H807.29V256.885H813.19V251.968H812.699Z" fill="#3F3D56"/>
<path d="M823.025 243.117H817.124V248.034H823.025V243.117Z" fill="#3F3D56"/>
<path d="M823.025 251.968H817.124V256.886H823.025V251.968Z" fill="#3F3D56"/>
<path d="M813.19 275.572V270.654H807.29V275.572H812.699H813.19Z" fill="#3F3D56"/>
<path d="M812.699 279.505H807.29V284.422H813.19V279.505H812.699Z" fill="#3F3D56"/>
<path d="M823.025 270.654H817.124V275.571H823.025V270.654Z" fill="#3F3D56"/>
<path d="M823.025 279.505H817.124V284.423H823.025V279.505Z" fill="#3F3D56"/>
<path d="M813.19 303.109V298.191H807.29V303.109H812.699H813.19Z" fill="#3F3D56"/>
<path d="M812.699 307.042H807.29V311.959H813.19V307.042H812.699Z" fill="#3F3D56"/>
<path d="M823.025 298.191H817.124V303.109H823.025V298.191Z" fill="#3F3D56"/>
<path d="M823.025 307.042H817.124V311.96H823.025V307.042Z" fill="#3F3D56"/>
<path d="M813.19 330.646V325.728H807.29V330.646H812.699H813.19Z" fill="#3F3D56"/>
<path d="M812.699 334.579H807.29V339.497H813.19V334.579H812.699Z" fill="#3F3D56"/>
<path d="M823.025 325.728H817.124V330.646H823.025V325.728Z" fill="#3F3D56"/>
<path d="M823.025 334.579H817.124V339.497H823.025V334.579Z" fill="#3F3D56"/>
<path d="M782.703 248.034H725.662V259.836H782.703V248.034Z" fill="#3F3D56"/>
<path d="M782.703 271.638H725.662V283.439H782.703V271.638Z" fill="#3F3D56"/>
<path d="M782.703 295.241H725.662V307.042H782.703V295.241Z" fill="#3F3D56"/>
<path d="M782.703 318.844H725.662V330.646H782.703V318.844Z" fill="#3F3D56"/>
<path d="M879.823 245.576L874.906 241.642L902.443 217.055H972.269V238.691L927.029 269.179L879.823 245.576Z" fill="#3F3D56"/>
<path d="M984.999 230.847V217.546H975.729V220.804L972.268 217.055L949.649 241.642L940.798 247.543L927.074 347.812L947.771 368.509H995.872V242.625L984.999 230.847Z" fill="#CCCCCC"/>
<path d="M949.649 241.642H874.906V368.509H949.649V241.642Z" fill="#F2F2F2"/>
<path d="M917.686 337.53H903.918V368.509H917.686V337.53Z" fill="#CCCCCC"/>
<path d="M889.166 346.381V341.464H883.265V346.381H888.674H889.166Z" fill="#3F3D56"/>
<path d="M888.674 350.315H883.265V355.233H889.166V350.315H888.674Z" fill="#3F3D56"/>
<path d="M899 341.464H893.099V346.381H899V341.464Z" fill="#3F3D56"/>
<path d="M899 350.315H893.099V355.232H899V350.315Z" fill="#3F3D56"/>
<path d="M929.488 346.381V341.464H923.587V346.381H928.996H929.488Z" fill="#3F3D56"/>
<path d="M928.996 350.315H923.587V355.233H929.488V350.315H928.996Z" fill="#3F3D56"/>
<path d="M939.323 341.464H933.422V346.381H939.323V341.464Z" fill="#3F3D56"/>
<path d="M939.323 350.315H933.422V355.232H939.323V350.315Z" fill="#3F3D56"/>
<path d="M970.793 248.034V243.117H964.892V248.034H970.302H970.793Z" fill="#3F3D56"/>
<path d="M970.302 251.968H964.892V256.885H970.793V251.968H970.302Z" fill="#3F3D56"/>
<path d="M980.628 243.117H974.727V248.034H980.628V243.117Z" fill="#3F3D56"/>
<path d="M980.628 251.968H974.727V256.886H980.628V251.968Z" fill="#3F3D56"/>
<path d="M970.793 275.572V270.654H964.892V275.572H970.302H970.793Z" fill="#3F3D56"/>
<path d="M970.302 279.505H964.892V284.422H970.793V279.505H970.302Z" fill="#3F3D56"/>
<path d="M980.628 270.654H974.727V275.571H980.628V270.654Z" fill="#3F3D56"/>
<path d="M980.628 279.505H974.727V284.423H980.628V279.505Z" fill="#3F3D56"/>
<path d="M970.793 303.109V298.191H964.892V303.109H970.302H970.793Z" fill="#3F3D56"/>
<path d="M970.302 307.042H964.892V311.959H970.793V307.042H970.302Z" fill="#3F3D56"/>
<path d="M980.628 298.191H974.727V303.109H980.628V298.191Z" fill="#3F3D56"/>
<path d="M980.628 307.042H974.727V311.96H980.628V307.042Z" fill="#3F3D56"/>
<path d="M970.793 330.646V325.728H964.892V330.646H970.302H970.793Z" fill="#3F3D56"/>
<path d="M970.302 334.579H964.892V339.497H970.793V334.579H970.302Z" fill="#3F3D56"/>
<path d="M980.628 325.728H974.727V330.646H980.628V325.728Z" fill="#3F3D56"/>
<path d="M980.628 334.579H974.727V339.497H980.628V334.579Z" fill="#3F3D56"/>
<path d="M940.306 248.034H883.265V259.836H940.306V248.034Z" fill="#3F3D56"/>
<path d="M940.306 271.638H883.265V283.439H940.306V271.638Z" fill="#3F3D56"/>
<path d="M940.306 295.241H883.265V307.042H940.306V295.241Z" fill="#3F3D56"/>
<path d="M940.306 318.844H883.265V330.646H940.306V318.844Z" fill="#3F3D56"/>
<path d="M1280 367.207H0V368.985H1280V367.207Z" fill="#3F3D56"/>
<path d="M415.918 311.68H414.491V368.018H415.918V311.68Z" fill="#3F3D56"/>
<path d="M429.081 318.86C429.171 338.56 415.311 354.594 415.311 354.594C415.311 354.594 401.304 338.688 401.214 318.989C401.123 299.289 414.983 283.254 414.983 283.254C414.983 283.254 428.99 299.16 429.081 318.86Z" fill="#A12AD8"/>
<path d="M558.545 311.68H557.118V368.018H558.545V311.68Z" fill="#3F3D56"/>
<path d="M571.708 318.86C571.798 338.56 557.938 354.594 557.938 354.594C557.938 354.594 543.931 338.688 543.841 318.989C543.75 299.289 557.61 283.254 557.61 283.254C557.61 283.254 571.617 299.16 571.708 318.86Z" fill="#A12AD8"/>
<path d="M843.086 311.68H841.659V368.018H843.086V311.68Z" fill="#3F3D56"/>
<path d="M856.249 318.86C856.339 338.56 842.479 354.594 842.479 354.594C842.479 354.594 828.472 338.688 828.381 318.989C828.291 299.289 842.151 283.254 842.151 283.254C842.151 283.254 856.158 299.16 856.249 318.86Z" fill="#A12AD8"/>
<path d="M653.748 122.695C668.715 122.695 680.847 119.965 680.847 116.598C680.847 113.23 668.715 110.5 653.748 110.5C638.782 110.5 626.649 113.23 626.649 116.598C626.649 119.965 638.782 122.695 653.748 122.695Z" fill="#A12AD8"/>
<path d="M684.413 31.3779C684.413 48.7075 653.035 97.6995 653.035 97.6995C653.035 97.6995 621.657 48.7075 621.657 31.3779C621.657 23.056 624.963 15.0749 630.848 9.19038C636.732 3.30588 644.713 0 653.035 0C661.357 0 669.338 3.30588 675.223 9.19038C681.107 15.0749 684.413 23.056 684.413 31.3779Z" fill="#A12AD8"/>
<path d="M653.035 49.2063C662.881 49.2063 670.863 41.2243 670.863 31.3779C670.863 21.5316 662.881 13.5496 653.035 13.5496C643.189 13.5496 635.207 21.5316 635.207 31.3779C635.207 41.2243 643.189 49.2063 653.035 49.2063Z" fill="#F2F2F2"/>
</svg>
