<svg width="24" height="24" viewBox="0 0 24 24" fill="none" xmlns="http://www.w3.org/2000/svg">
<path d="M12 11.5102C13.8936 11.5102 15.4286 9.97517 15.4286 8.08162C15.4286 6.18808 13.8936 4.65305 12 4.65305C10.1065 4.65305 8.57145 6.18808 8.57145 8.08162C8.57145 9.97517 10.1065 11.5102 12 11.5102ZM12 12.4898C9.56546 12.4898 7.59186 10.5162 7.59186 8.08162C7.59186 5.64706 9.56546 3.67346 12 3.67346C14.4346 3.67346 16.4082 5.64706 16.4082 8.08162C16.4082 10.5162 14.4346 12.4898 12 12.4898Z" fill="#171F78"/>
<path d="M4.40818 20.1204C4.40818 20.3909 4.18889 20.6102 3.91838 20.6102C3.64788 20.6102 3.42859 20.3909 3.42859 20.1204C3.42859 16.6044 6.26476 13.7531 9.76467 13.7531H14.2354C17.7353 13.7531 20.5714 16.6044 20.5714 20.1204C20.5714 20.3909 20.3522 20.6102 20.0816 20.6102C19.8111 20.6102 19.5919 20.3909 19.5919 20.1204C19.5919 17.1443 17.1931 14.7327 14.2354 14.7327H9.76467C6.80695 14.7327 4.40818 17.1443 4.40818 20.1204Z" fill="#171F78"/>
<path d="M12 23.0204C18.0864 23.0204 23.0204 18.0864 23.0204 12C23.0204 5.9136 18.0864 0.979592 12 0.979592C5.9136 0.979592 0.979592 5.9136 0.979592 12C0.979592 18.0864 5.9136 23.0204 12 23.0204ZM12 24C5.37258 24 0 18.6274 0 12C0 5.37258 5.37258 0 12 0C18.6274 0 24 5.37258 24 12C24 18.6274 18.6274 24 12 24Z" fill="#171F78"/>
</svg>
